# xmcd
#
# Track frame offsets:
# 150
# 9120
# 23891
# 37290
# 49735
# 61212
# 75642
# 88248
# 102059
# 119046
# 139410
# 148693
# 162747
#
# Disc length: 2403 seconds
#
#
# Revision: 0
# Processed by: cddbd v1.5.1PL0 Copyright (c) Steve Scherf et al.
# Submitted via: FreeRIP 2.90 
#
DISCID=b709610d
DTITLE=jerry hughes - country gold
DYEAR=1900
DGENRE=Country
TTITLE0=mama tried
TTITLE1=lincoln park inn
TTITLE2=old habits
TTITLE3=sea of heartbreak
TTITLE4=old love turned memory
TTITLE5=silver wings
TTITLE6=home coming 63
TTITLE7=honky tonk angel
TTITLE8=midnight in montgomery
TTITLE9=neon moon
TTITLE10=close the door
TTITLE11=the dance
TTITLE12=feels so right
EXTD=
EXTT0=
EXTT1=
EXTT2=
EXTT3=
EXTT4=
EXTT5=
EXTT6=
EXTT7=
EXTT8=
EXTT9=
EXTT10=
EXTT11=
EXTT12=
PLAYORDER=
